<svg xmlns="http://www.w3.org/2000/svg" viewBox="0 0 21.24 18.58"><defs><style>.cls-1{fill:#fff;}</style></defs><title>camara</title><g id="Capa_2" data-name="Capa 2"><g id="Capa_1-2" data-name="Capa 1"><path class="cls-1" d="M12.5,8.08a2.66,2.66,0,1,1-3.76,0,2.66,2.66,0,0,1,3.76,0"/><path class="cls-1" d="M18.58,2.65H16.75L15.42,0H5.82L4.49,2.66H2.66A2.65,2.65,0,0,0,0,5.31V15.93a2.65,2.65,0,0,0,2.65,2.65H18.58a2.66,2.66,0,0,0,2.66-2.65V5.31A2.67,2.67,0,0,0,18.58,2.65Zm-8,12.61A5.31,5.31,0,1,1,15.93,10a5.31,5.31,0,0,1-5.31,5.3Z"/></g></g></svg>