<?xml version="1.0" encoding="utf-8"?>
<!-- Generator: Adobe Illustrator 24.0.2, SVG Export Plug-In . SVG Version: 6.00 Build 0)  -->
<svg version="1.1" id="Capa_1" xmlns="http://www.w3.org/2000/svg" xmlns:xlink="http://www.w3.org/1999/xlink" x="0px" y="0px"
	 viewBox="0 0 12.6 14.5" style="enable-background:new 0 0 12.6 14.5;" xml:space="preserve">
<style type="text/css">
	.st0{fill:#FFFFFF;stroke:#FFFFFF;stroke-width:0.7642;stroke-miterlimit:10;}
</style>
<title>play_btn</title>
<g>
	<path class="st0" d="M3.9,13.2c-0.6,0-1.1-0.2-1.1-0.4V1.7c0-0.2,0.5-0.4,1.1-0.4s1.1,0.2,1.1,0.4v11.1C4.9,13,4.5,13.2,3.9,13.2
		L3.9,13.2z M3.9,13.2"/>
	<path class="st0" d="M8.7,13.2c-0.6,0-1.1-0.2-1.1-0.4V1.7c0-0.2,0.5-0.4,1.1-0.4s1.1,0.2,1.1,0.4v11.1C9.7,13,9.3,13.2,8.7,13.2
		L8.7,13.2z M8.7,13.2"/>
</g>
</svg>
