<svg xmlns="http://www.w3.org/2000/svg" viewBox="0 0 35.4 34.65"><defs><style>.cls-1{fill:#ba61ff;}.cls-2{fill:#fff;}</style></defs><title>play_btn_2</title><g id="Capa_2" data-name="Capa 2"><g id="Capa_1-2" data-name="Capa 1"><rect class="cls-1" width="35.4" height="34.65" rx="3.91"/><path class="cls-2" d="M25.18,16.92l-.06,0L13,8.33l-.2-.15a.71.71,0,0,0-.21,0,.57.57,0,0,0-.57.57V25.94a.57.57,0,0,0,.57.57.5.5,0,0,0,.21-.05l.2-.14,12.08-8.55.06-.05a.57.57,0,0,0,.17-.4A.6.6,0,0,0,25.18,16.92Z"/></g></g></svg>