<svg xmlns="http://www.w3.org/2000/svg" viewBox="0 0 35.4 34.65"><defs><style>.cls-1{fill:#ec5a82;}.cls-2{fill:#fff;}</style></defs><title>rec_btn_2</title><g id="Capa_2" data-name="Capa 2"><g id="Capa_1-2" data-name="Capa 1"><rect class="cls-1" width="35.4" height="34.65" rx="3.91"/><path class="cls-2" d="M17.7,20.68a3.36,3.36,0,0,0,3.35-3.36V9.5a3.35,3.35,0,0,0-6.7,0v7.82A3.37,3.37,0,0,0,17.7,20.68Z"/><path class="cls-2" d="M25.53,17.32H23.29a5.59,5.59,0,1,1-11.18,0H9.88a7.83,7.83,0,0,0,6.7,7.74v1.2L14.35,28.5h6.7l-2.23-2.24v-1.2A7.84,7.84,0,0,0,25.53,17.32Z"/></g></g></svg>